<svg xmlns="http://www.w3.org/2000/svg">
<symbol id="icon-safe" viewBox="0 0 21 24"><path d="M7.1 10.6c-.4-.4-1-.4-1.3 0-.4.4-.4 1 0 1.3l2.6 2.6c.4.4 1 .4 1.3 0l4.7-4.7c.4-.4.4-1 0-1.3-.4-.4-1-.4-1.3 0l-4 4-2-1.9zm11.3-1.2c0 5.5-3.2 10.4-8.3 12.7-5-2.2-8.3-7.2-8.3-12.7v-4L10.1 2l8.3 3.4v4zm1.3-5.5L10.5.1c-.2-.1-.5-.1-.7 0L.6 3.9c-.4.1-.6.5-.6.9v4.6c0 6.4 3.9 12.1 9.8 14.5.2.1.5.1.7 0 5.9-2.4 9.8-8.2 9.8-14.5V4.8c0-.4-.3-.8-.6-.9z"/></symbol>
<symbol id="icon-suport" viewBox="0 0 24 24"><path d="M24 9.8c0-1.6-1.2-3-2.7-3.2C19.9 2.8 16.3 0 12 0S4.1 2.8 2.7 6.6C1.2 6.9 0 8.2 0 9.8c0 1.8 1.5 3.3 3.3 3.3.6 0 1.1-.5 1.1-1.1V9.8c0-4.2 3.4-7.6 7.6-7.6s7.6 3.4 7.6 7.6c0 3.4-2.2 6.4-5.5 7.3-.2-1.1-1.1-1.9-2.1-1.9-1.2 0-2.2 1-2.2 2.2v1.1c0 .6.5 1.1 1.1 1.1H12c.4 0 .8 0 1.2-.1 2.1-.3 4.1-1.2 5.6-2.7 1.2.9 2.1 2.1 2.6 3.5.1.4 0 .8-.1.9-.2.3-.5.5-.9.5H3.7c-.4 0-.7-.2-.9-.5-.2-.3-.3-.6-.1-.9.4-1.1 1-2.1 1.8-2.9.4-.4.9-.8 1.5-1.1.5-.3.6-1 .3-1.5s-.9-.6-1.4-.4c-.7.4-1.3.9-1.9 1.5C2 17 1.2 18.2.7 19.6c-.3 1-.2 2.1.4 2.9.5 1 1.5 1.5 2.6 1.5h16.7c1.1 0 2.1-.5 2.7-1.4s.8-1.9.4-2.9c-.6-1.8-1.8-3.4-3.2-4.5.4-.7.8-1.4 1-2.1 1.5-.3 2.7-1.7 2.7-3.3z"/></symbol>
<symbol id="icon-x" viewBox="0 0 8 8"><path d="M.9 7.9L4 4.8l3.1 3.1c.1.1.2.1.3 0l.6-.6s0-.1-.1-.2L4.8 4 7.9.9c.1-.1.1-.2 0-.3L7.4.1c-.1-.1-.2-.1-.3 0L4 3.2.9.1C.8 0 .7 0 .6.1L.1.6C0 .7 0 .8.1.9L3.2 4 .1 7.1c-.1.1-.1.2 0 .3l.6.6s.1 0 .2-.1z"/></symbol>
</svg>