<svg version="1.1" id="Слой_1" xmlns="http://www.w3.org/2000/svg" x="0" y="0" viewBox="0 0 48 48" xml:space="preserve"><style>.st1{fill:#04928d}</style><path d="M0 0h48v48H0V0z" fill="none"/><path class="st1" d="M28 46h-8c-1.5 0-2.7-1.1-3-2.5l-.6-4.3c-.6-.3-1.2-.7-1.8-1.1l-4 1.6c-1.4.5-3 0-3.7-1.3l-4-6.9c-.7-1.3-.4-2.9.7-3.9L7 25.1v-2.2l-3.4-2.6c-1.2-1-1.5-2.6-.7-3.9l4-6.9c.7-1.3 2.3-1.8 3.7-1.3l4 1.6c.6-.4 1.2-.7 1.8-1.1l.6-4.1c.3-1.5 1.5-2.6 3-2.6h8c1.4 0 2.7 1 3 2.5l.6 4.3c.6.3 1.2.7 1.8 1.1l4-1.6c1.4-.5 3 0 3.7 1.3l4 6.9c.7 1.3.4 2.9-.7 3.8L41 22.9v2.2l3.4 2.6c1.2 1 1.5 2.6.7 3.9l-4 6.9c-.7 1.3-2.3 1.8-3.7 1.3l-4-1.6c-.6.4-1.2.7-1.8 1.1l-.6 4.1c-.3 1.5-1.5 2.6-3 2.6zm-7.1-4h6.3l.8-5.5 1-.4c1.1-.4 2-1 2.9-1.7l.9-.7 5.2 2.1 3.1-5.4-4.4-3.5.1-1.1c.2-.8.2-1.3.2-1.8s0-1-.1-1.7l-.1-1.1 4.4-3.5-3.2-5.4-5.2 2.1-.9-.7C31 13 30 12.4 29 12l-1-.4-.9-5.6h-6.3l-.8 5.5-1 .5c-1 .4-2 1-2.9 1.7l-.9.7-5.2-2.1-3.1 5.4 4.4 3.5-.1 1.1c-.2.7-.2 1.2-.2 1.7s0 1 .1 1.7l.1 1.1-4.4 3.5 3.1 5.4 5.2-2.1.9.7c1 .7 2 1.3 3 1.7l1 .4.9 5.6zm20.7-12.5zm-35.2-11z"/><circle class="st1" cx="24" cy="24" r="6.2"/></svg>