<?xml version="1.0" encoding="utf-8"?>
<!-- Generator: Adobe Illustrator 25.4.1, SVG Export Plug-In . SVG Version: 6.00 Build 0)  -->
<svg version="1.1" id="Слой_1" xmlns="http://www.w3.org/2000/svg" xmlns:xlink="http://www.w3.org/1999/xlink" x="0px" y="0px"
	 viewBox="0 0 90 22" style="enable-background:new 0 0 90 22;" xml:space="preserve">
<style type="text/css">
	.st0{fill:#FFFFFF;}
</style>
<g>
	<path class="st0" d="M66,8.7c-0.2-0.1-0.5,0-0.5,0.3v4.7c0,0.2,0.3,0.4,0.5,0.3l3.8-2.3c0.2-0.1,0.2-0.4,0-0.6L66,8.7z"/>
	<path class="st0" d="M85.8,0H4.2c-1,0-1.8,0.8-1.8,1.8v18.4c0,1,0.8,1.8,1.8,1.8h81.7c1,0,1.8-0.8,1.8-1.8V1.8
		C87.7,0.8,86.8,0,85.8,0z M19.9,17.1h-7.6V4.9h1.6v10.7h6V17.1z M23.7,17.1h-1.6V4.9h1.6V17.1z M31.7,17.1h-1.7L25.3,4.9h1.7
		l3.2,8.8c0.3,0.7,0.5,1.4,0.6,2c0.2-0.7,0.4-1.3,0.7-2l3.3-8.8h1.6L31.7,17.1z M47,17.1H38V4.9h8.8v1.4h-7.2v3.7h6.7v1.4h-6.7v4.1
		H47V17.1z M57.2,17.9c-1.4-2-2.1-4.4-2.1-6.8c0-2.4,0.7-4.7,2-6.7l0.8,0.5c-1.2,1.8-1.8,3.9-1.8,6.1c0,2.2,0.7,4.4,1.9,6.3
		L57.2,17.9z M60.3,16.1c-1.1-1.5-1.7-3.2-1.7-5.1c0-1.8,0.5-3.5,1.6-5l0.8,0.6c-0.9,1.3-1.4,2.8-1.4,4.4c0,1.6,0.5,3.2,1.5,4.5
		L60.3,16.1z M67.2,15.8c-2.6,0-4.7-2.1-4.7-4.7c0-2.6,2.1-4.7,4.7-4.7c2.6,0,4.7,2.1,4.7,4.7C71.9,13.7,69.8,15.8,67.2,15.8z
		 M74,16.1l-0.8-0.6c1-1.3,1.5-2.8,1.5-4.5c0-1.6-0.5-3.1-1.4-4.4L74.1,6c1,1.5,1.6,3.2,1.6,5C75.7,12.8,75.1,14.6,74,16.1z
		 M77.4,17.9l-0.8-0.6c1.2-1.8,1.9-4,1.9-6.3c0-2.2-0.7-4.4-1.9-6.3l0.8-0.6c1.4,2,2.1,4.4,2.1,6.8C79.5,13.5,78.8,15.9,77.4,17.9z"
		/>
</g>
</svg>
