<svg xmlns="http://www.w3.org/2000/svg" width="77" height="60"><path fill="#fff" d="M75.663 39.41V37.9l-.257 1.303h-.175l-.257-1.3v1.507h-.169v-2h.238l.274 1.373.274-1.373h.238v2zm-1.52 0v-1.657h-.303v-.338h.774v.338h-.303v1.657zm.911 19.546h.138a.117.117 0 0 0 .073-.026.101.101 0 0 0 .028-.075.1.1 0 0 0-.028-.074.107.107 0 0 0-.073-.025h-.138zm.14-.307c.06-.004.12.014.168.05.04.033.061.083.059.135a.157.157 0 0 1-.048.12.228.228 0 0 1-.134.056l.188.218h-.145l-.172-.216h-.056v.216h-.121v-.579h.263zm-.038.78a.487.487 0 0 0 .186-.93.493.493 0 0 0-.375 0 .483.483 0 0 0-.156.102.498.498 0 0 0 0 .69.485.485 0 0 0 .345.141zm0-1.107a.633.633 0 0 1 .58.382.62.62 0 0 1-.334.817.626.626 0 0 1-.83-.34.62.62 0 0 1 .336-.816.626.626 0 0 1 .25-.05zm-56.715-.225c1.127 0 1.888-.868 1.888-2.012 0-1.143-.76-2.011-1.888-2.011-1.18 0-1.9.907-1.9 2.011zm3.175-2.012v3.144h-1.363v-.763c-.433.565-1.09.92-1.982.92-1.759 0-3.138-1.38-3.138-3.299 0-1.918 1.38-3.3 3.138-3.3.893 0 1.55.356 1.982.921v-.765h1.364v3.142zm48.08 2.012c1.129 0 1.888-.868 1.888-2.012 0-1.143-.76-2.011-1.888-2.011-1.18 0-1.901.907-1.901 2.011zm3.178 1.131h-1.366v-.762c-.433.565-1.089.92-1.981.92-1.76 0-3.139-1.38-3.139-3.299 0-1.918 1.38-3.3 3.139-3.3.892 0 1.548.356 1.981.921V50.42h1.366zM38.58 54.01c-.97 0-1.52.617-1.665 1.524h3.25c-.144-.972-.708-1.524-1.585-1.524zm.026-1.225c1.756 0 2.966 1.34 2.98 3.3 0 .183-.014.354-.028.524H36.9c.197 1.131.997 1.54 1.876 1.54.63 0 1.3-.237 1.825-.658l.669 1.012c-.761.645-1.627.88-2.572.88-1.878 0-3.216-1.3-3.216-3.298 0-1.96 1.287-3.3 3.125-3.3zm16.502 3.3c0 1.103.722 2.01 1.901 2.01 1.127 0 1.888-.867 1.888-2.01 0-1.144-.76-2.012-1.888-2.012-1.18 0-1.901.907-1.901 2.011zm5.077.001v3.144h-1.364v-.763c-.434.565-1.089.92-1.981.92-1.76 0-3.139-1.38-3.139-3.299 0-1.918 1.38-3.3 3.139-3.3.892 0 1.547.356 1.981.921v-.765h1.364v3.14zm-9.447-3.301c.944 0 1.573.21 2.255.749l-.655 1.104c-.514-.368-1.052-.565-1.643-.565-1.09.013-1.89.802-1.89 2.011 0 1.21.8 1.998 1.89 2.012.593 0 1.13-.197 1.643-.566l.655 1.104c-.68.539-1.31.75-2.255.75-2.022 0-3.346-1.394-3.346-3.3zm14.26.001c.276 0 .67.052.971.172l-.42 1.287a2.205 2.205 0 0 0-.852-.158c-.891 0-1.337.578-1.337 1.617v3.522h-1.364v-6.282h1.35v.761c.354-.551.867-.92 1.653-.92zm-36.624.659l-.59 1.104c-.38-.236-1.155-.538-1.956-.538-.748 0-1.194.276-1.194.735 0 .421.473.54 1.063.617l.643.093c1.365.198 2.192.775 2.192 1.88 0 1.196-1.05 2.05-2.862 2.05-1.023 0-1.967-.263-2.715-.815l.64-1.066c.46.355 1.142.658 2.087.658.933 0 1.43-.277 1.43-.763 0-.355-.354-.552-1.102-.657l-.644-.092c-1.402-.197-2.164-.83-2.164-1.854 0-1.248 1.023-2.011 2.612-2.011.997 0 1.902.224 2.558.657zm17.63-.659c.276 0 .669.052.97.172l-.42 1.287a2.205 2.205 0 0 0-.852-.158c-.89 0-1.336.578-1.336 1.617v3.522h-1.363v-6.282h1.35v.764c.353-.552.865-.92 1.651-.92zm-11.662 1.408h-2.23v2.838c0 .63.223 1.052.905 1.052.354 0 .8-.12 1.207-.355l.394 1.17c-.433.301-1.114.485-1.706.485-1.613 0-2.178-.868-2.178-2.326v-2.866h-1.272v-1.248h1.272v-1.906h1.379v1.906h2.23zm-21.811 5.03v-3.496c0-1.065-.445-1.656-1.377-1.656-.906 0-1.536.58-1.536 1.67v3.483H8.24v-3.496c0-1.065-.458-1.656-1.365-1.656-.933 0-1.537.58-1.537 1.67v3.483H3.96v-6.282h1.366v.776c.513-.735 1.168-.932 1.839-.932.959 0 1.641.42 2.074 1.117.579-.881 1.405-1.13 2.206-1.117 1.525.013 2.47 1.012 2.47 2.497v3.943z"/><path fill="#ff5f00" d="M48.633 42.267H27.93V5.06h20.704z"/><path fill="#eb001b" d="M29.245 23.663c0-7.548 3.534-14.27 9.037-18.604A23.559 23.559 0 0 0 23.66 0C10.592 0 0 10.594 0 23.663s10.592 23.663 23.66 23.663a23.559 23.559 0 0 0 14.622-5.06c-5.502-4.332-9.037-11.055-9.037-18.603"/><path fill="#f79e1b" d="M76.564 23.663c0 13.069-10.592 23.663-23.66 23.663a23.566 23.566 0 0 1-14.624-5.06c5.504-4.333 9.038-11.055 9.038-18.603 0-7.548-3.534-14.27-9.038-18.604A23.566 23.566 0 0 1 52.904 0c13.067 0 23.66 10.594 23.66 23.663"/></svg>