<svg xmlns="http://www.w3.org/2000/svg" width="60" height="60"><path fill="#f7931a" d="M59.096 37.258C55.09 53.329 38.811 63.109 22.737 59.102 6.671 55.096-3.11 38.817.898 22.746 4.903 6.673 21.181-3.109 37.25.898c16.072 4.007 25.852 20.287 21.845 36.36z"/><path fill="#fff" d="M28.207 27.025l1.639-6.565c1.859.463 7.844 1.327 6.876 5.2-.928 3.715-6.656 1.828-8.515 1.365zm7.498 9.243c-1.018 4.084-7.9 1.877-10.132 1.323l1.808-7.24c2.231.557 9.385 1.659 8.325 5.917zm7.522-10.545c.596-3.992-2.444-6.138-6.6-7.57l1.349-5.407-3.293-.82-1.312 5.265a135.91 135.91 0 0 0-2.637-.621l1.322-5.3-3.29-.82-1.348 5.406c-.717-.163-1.42-.325-2.102-.494l.003-.017-4.539-1.134-.876 3.516s2.443.56 2.391.594c1.333.333 1.575 1.215 1.534 1.915l-1.536 6.16c.092.023.211.057.342.11l-.347-.087-2.153 8.63c-.163.405-.577 1.013-1.508.782.032.048-2.393-.597-2.393-.597L14.6 39.003l4.284 1.067c.797.2 1.578.41 2.346.606l-1.362 5.47 3.288.82 1.35-5.41c.897.243 1.769.468 2.622.68l-1.345 5.386 3.292.82 1.362-5.459c5.613 1.062 9.835.634 11.61-4.442 1.43-4.087-.071-6.445-3.024-7.983 2.15-.498 3.77-1.913 4.203-4.835z"/></svg>