<svg xmlns="http://www.w3.org/2000/svg" width="119" height="39"><path fill="#2566af" d="M85.14 10.122C81 7.84 71.577 7.3 71.576 11.502c0 4.202 13.504 5.102 13.504 14.766 0 9.306-9.962 12.725-16.565 12.725-6.602 0-10.923-2.1-10.923-2.1l1.439-8.344c3.962 3.18 15.967 4.084 15.967-.96 0-5.043-13.384-5.163-13.384-14.765C61.613 2.62 73.016.52 77.818.52c4.442 0 8.704 1.62 8.704 1.62zm22.08 15.072l-2.86-13.899-5.085 13.899zm1.577 7.637H96.492l-2.018 5.52h-10.09L98.82 3.953s.875-2.77 4.468-2.77h7.781l7.75 37.168h-8.889zM44.227 1.184L28.83 38.352H18.75l-8.407-32.29C4.884 2.784.22 1.813.22 1.813l.179-.629H15.65c4.197 0 4.59 3.347 4.59 3.347l3.256 16.714v-.002l1.09 5.505 9.226-25.564zm7.402 37.167h-9.676L48 1.184h9.678z"/><path fill="#e6a540" d="M23.496 21.241L20.24 4.526s-.393-3.346-4.59-3.346H.399l-.179.63s7.33 1.518 14.361 7.21c6.723 5.44 8.915 12.221 8.915 12.221z"/></svg>