<svg xmlns="http://www.w3.org/2000/svg" width="157" height="40"><path fill="#fff" d="M112.575.64h5.217l-10.616 25.165h-2.562L94.18.64h5.308l6.497 16.472zm7.413 0h13.544v4.21h-8.786v5.399h8.42v4.209h-8.42v6.589h8.786v4.119h-13.544zm32.486 7.23c0 3.751-2.014 6.222-5.582 6.953l7.687 10.342h-5.857l-6.59-9.792h-.64v9.792h-4.758V.64h7.047c5.581 0 8.693 2.654 8.693 7.23zm-9.61 4.118c3.113 0 4.667-1.373 4.666-3.844 0-2.38-1.554-3.66-4.574-3.66h-1.464v7.504zM1.93 32.367v2.197h2.713v.89H1.93v3.827H.955v-7.804h3.777v.89zm7.257-.89h.976v7.804h-.976zm11.541 5.767v-5.767h.976v8.126l-5.86-6.139v5.817h-.97v-8.18zm8.608-3.968l-1.389 3.16h2.78zm-1.789 4.05l-.892 1.955h-1.046l3.728-8.136 3.73 8.136h-1.05l-.89-1.955zm15.283-.082v-5.767h.976v8.126l-5.866-6.139v5.817h-.97v-8.18zM54.216-1557c.001 0 0 0 0 0zM52.156 32.202c-1.746 0-3.082 1.46-3.082 3.189 0 1.708 1.323 3.166 3.064 3.166a3.1 3.1 0 0 0 2.078-.807v1.151a4.205 4.205 0 0 1-2.049.547c-2.23 0-4.07-1.77-4.07-4.028 0-2.31 1.852-4.112 4.156-4.112.684 0 1.376.169 1.962.53v1.13c-.555-.499-1.324-.766-2.06-.766zm6.54-.725h.97v7.804h-.97zm10.063 4.96l-1.383-3.16-1.397 3.16zm.4.89h-3.58l-.89 1.954h-1.043l3.73-8.136 3.721 8.136h-1.045zm6.909 1.069h2.372v.885h-3.342v-7.804h.97zm14.91-6.175c-.622 0-1.308.424-1.308 1.11 0 .608.61.931 1.093 1.117l.555.219c1.112.433 1.94 1.045 1.94 2.349 0 1.42-1.1 2.432-2.495 2.432-1.265 0-2.248-.93-2.41-2.184l.981-.205c-.012.857.672 1.479 1.506 1.479.841 0 1.44-.702 1.44-1.522 0-.837-.672-1.201-1.343-1.483l-.537-.225c-.893-.383-1.7-.89-1.7-1.978 0-1.265 1.118-2.022 2.3-2.022.867 0 1.583.427 2.005 1.181l-.774.47c-.282-.49-.657-.738-1.252-.738zm10.882-.744v.89h-3.22v2.187h3.132v.89H98.64v2.952h3.22v.885h-4.196v-7.804zm5.525.87v2.825h.304c.992 0 2.075-.185 2.075-1.426 0-1.224-1.157-1.4-2.128-1.4zm1.417 3.541l2.462 3.393h-1.178l-2.299-3.298h-.4v3.298h-.975v-7.804h1.18c.69 0 1.435.01 2.055.36.653.384 1.028 1.121 1.028 1.865 0 1.12-.745 2.05-1.873 2.186zm9.15 1.366l2.319-5.777h1.068l-3.388 8.223-3.393-8.223h1.066zm7.362-5.777h.974v7.804h-.974zm9.4.725c-1.744 0-3.08 1.46-3.08 3.189 0 1.708 1.321 3.167 3.062 3.167.768 0 1.507-.288 2.089-.808v1.151a4.24 4.24 0 0 1-2.054.547c-2.224 0-4.073-1.77-4.073-4.028 0-2.31 1.861-4.112 4.155-4.112.685 0 1.377.169 1.973.53v1.13h-.001c-.563-.498-1.333-.766-2.072-.766zm10.762-.725v.89h-3.218v2.187h3.126v.89h-3.126v2.952h3.218v.885h-4.195v-7.804zm6.764.744c-.62 0-1.305.424-1.305 1.11 0 .608.604.931 1.086 1.117l.564.219c1.104.433 1.931 1.045 1.931 2.349 0 1.42-1.097 2.432-2.495 2.432-1.26 0-2.25-.93-2.408-2.184l.98-.205c-.013.857.676 1.479 1.512 1.479.84 0 1.441-.702 1.441-1.522 0-.837-.678-1.201-1.348-1.483l-.537-.225c-.894-.383-1.7-.89-1.7-1.978 0-1.265 1.119-2.022 2.3-2.022.866 0 1.584.427 2.011 1.181l-.785.47c-.284-.49-.657-.738-1.247-.738zm2.647-29.68h-.095v.562h.089c.26 0 .39-.1.39-.288 0-.185-.125-.273-.384-.274zm.52 1.76l-.606-.837v.837h-.51V2.14h.688c.528 0 .824.239.824.662 0 .305-.175.527-.478.606l.711.893zm-.32.801a1.88 1.88 0 0 1-1.888-1.885 1.875 1.875 0 0 1 1.888-1.883c1.018 0 1.858.85 1.858 1.883 0 1.034-.84 1.884-1.858 1.885zm-.01-3.425c-.832 0-1.505.684-1.505 1.545 0 .85.68 1.542 1.506 1.542.82 0 1.487-.695 1.487-1.542 0-.85-.667-1.545-1.487-1.545zM7.888.64c7.778 0 13.177 5.033 13.177 12.262 0 3.66-1.738 7.139-4.484 9.426-2.38 2.012-5.032 2.837-8.785 2.837H.84V.64zm8.236 12.262c0-2.379-1.007-4.668-2.654-6.132-1.65-1.372-3.48-1.92-6.59-1.92H5.6v16.197h1.28c3.11 0 5.034-.64 6.589-1.922 1.647-1.464 2.653-3.844 2.654-6.223zM23.26.64h4.758v24.526H23.26zm16.471 9.426c5.4 2.012 7.046 3.752 7.047 7.687 0 4.759-3.478 8.053-8.42 8.053-3.66 0-6.313-1.465-8.51-4.667l3.02-3.02c1.098 2.105 3.02 3.295 5.216 3.295 2.197 0 3.752-1.464 3.752-3.478 0-1.007-.457-1.92-1.464-2.562-.457-.275-1.372-.732-3.294-1.373-4.485-1.646-6.04-3.294-6.04-6.68 0-4.026 3.294-7.046 7.687-7.046 2.654 0 5.124.915 7.229 2.745l-2.563 3.202c-1.189-1.372-2.38-1.92-3.843-1.92-2.014 0-3.569 1.097-3.569 2.652 0 1.373.824 2.014 3.752 3.112zm8.511 2.836C48.243 5.856 54.1.09 61.33.09c2.105 0 3.843.457 5.857 1.555v5.583c-1.923-1.922-3.66-2.746-5.949-2.746-4.484 0-8.053 3.752-8.053 8.419 0 4.942 3.478 8.511 8.236 8.511 2.197 0 3.843-.824 5.766-2.746v5.674c-2.106 1.007-3.935 1.374-5.949 1.374-7.32 0-12.994-5.583-12.994-12.812z"/><path fill="#db8135" d="M82.097.09c-7.23 0-13.087 5.674-13.087 12.628 0 7.505 5.583 12.995 13.087 12.995 7.32 0 13.086-5.583 13.086-12.812C95.183 5.764 89.509.09 82.097.09z"/><path fill="#db8135" d="M82.097.09c-7.23 0-13.087 5.674-13.087 12.628 0 7.505 5.583 12.995 13.087 12.995 7.32 0 13.086-5.583 13.086-12.812C95.183 5.764 89.509.09 82.097.09z"/><path fill="#db8135" d="M82.097 12.9h13.086c0-7.137-5.675-12.81-13.086-12.81-7.23 0-13.087 5.674-13.087 12.628 0 7.505 5.583 12.995 13.087 12.995 7.32 0 13.086-5.583 13.086-12.812z"/><path fill="#db8137" d="M82.097 12.9h13.086c0-7.137-5.675-12.81-13.086-12.81-7.23 0-13.087 5.674-13.087 12.628 0 7.505 5.583 12.995 13.087 12.995 7.32 0 13.086-5.583 13.086-12.812z"/><path fill="#dc8337" d="M82.097 12.9h13.086c0-7.137-5.675-12.81-13.086-12.81-7.23 0-13.087 5.674-13.087 12.628 0 7.505 5.583 12.995 13.087 12.995 7.32 0 13.086-5.583 13.086-12.812z"/><path fill="#dc8539" d="M82.097 12.9h13.086c0-7.137-5.675-12.81-13.086-12.81-7.23 0-13.087 5.674-13.087 12.628 0 7.505 5.583 12.995 13.087 12.995 7.32 0 13.086-5.583 13.086-12.812z"/><path fill="#dc853a" d="M82.097 12.9h13.086c0-7.137-5.675-12.81-13.086-12.81-7.23 0-13.087 5.674-13.087 12.628 0 7.505 5.583 12.995 13.087 12.995 7.32 0 13.086-5.583 13.086-12.812z"/><path fill="#dc853c" d="M82.097 12.9h13.086c0-7.137-5.675-12.81-13.086-12.81-7.23 0-13.087 5.674-13.087 12.628 0 7.505 5.583 12.995 13.087 12.995 7.32 0 13.086-5.583 13.086-12.812z"/><path fill="#dd873e" d="M82.097 12.9h13.086c0-7.137-5.675-12.81-13.086-12.81-7.23 0-13.087 5.674-13.087 12.628 0 7.505 5.583 12.995 13.087 12.995 7.32 0 13.086-5.583 13.086-12.812z"/><path fill="#dd873e" d="M82.097 12.9h13.086c0-7.137-5.675-12.81-13.086-12.81-7.23 0-13.087 5.674-13.087 12.628 0 7.505 5.583 12.995 13.087 12.995 7.32 0 13.086-5.583 13.086-12.812z"/><path fill="#dd883f" d="M82.097 12.9h13.086c0-7.137-5.675-12.81-13.086-12.81-7.23 0-13.087 5.674-13.087 12.628 0 7.505 5.583 12.995 13.087 12.995 7.32 0 13.086-5.583 13.086-12.812z"/><path fill="#dd8841" d="M82.097 12.9h13.086c0-7.137-5.675-12.81-13.086-12.81-7.23 0-13.087 5.674-13.087 12.628 0 7.505 5.583 12.995 13.087 12.995 7.32 0 13.086-5.583 13.086-12.812z"/><path fill="#de8a41" d="M82.097 12.9h13.086c0-7.137-5.675-12.81-13.086-12.81-7.23 0-13.087 5.674-13.087 12.628 0 7.505 5.583 12.995 13.087 12.995 7.32 0 13.086-5.583 13.086-12.812z"/><path fill="#de8a43" d="M82.097 12.9h13.086c0-7.137-5.675-12.81-13.086-12.81-7.23 0-13.087 5.674-13.087 12.628 0 7.505 5.583 12.995 13.087 12.995 7.32 0 13.086-5.583 13.086-12.812z"/><path fill="#de8a44" d="M82.097 12.9h13.086c0-7.137-5.675-12.81-13.086-12.81-7.23 0-13.087 5.674-13.087 12.628 0 7.505 5.583 12.995 13.087 12.995 7.32 0 13.086-5.583 13.086-12.812z"/><path fill="#de8c46" d="M82.097 12.9h13.086c0-7.137-5.675-12.81-13.086-12.81-7.23 0-13.087 5.674-13.087 12.628 0 7.505 5.583 12.995 13.087 12.995 7.32 0 13.086-5.583 13.086-12.812z"/><path fill="#df8e47" d="M95.192 12.902c0 .224-.006.449-.017.673v.001c-.005.111-.013.222-.02.332l-.002.002c-.066.872-.22 1.734-.459 2.575l-.083.283c-1.638 5.26-6.558 8.945-12.505 8.945-4.182 0-7.767-1.706-10.121-4.515a13.061 13.061 0 0 1-2.163-3.773l-.018-.048-.04-.115a13.861 13.861 0 0 1-.744-4.45 12.94 12.94 0 0 1 1.172-5.316C72.253 3.135 76.811.09 82.106.09c6.016 0 10.888 3.739 12.508 8.964l.031.106.06.203.025.096.052.195.053.208c.006.035.017.069.024.103.017.074.033.149.048.223l.02.088.036.184.027.156.005.032c.018.095.033.19.05.286l.003.03.04.291v.003c.014.102.026.204.036.306a12.087 12.087 0 0 1 .03.345c.008.106.015.213.02.32v.008c.006.11.01.218.012.327v.005c.004.11.006.222.006.333z"/><path fill="#df8e48" d="M82.106 12.9H95.1c0-4.977-2.85-9.286-6.995-11.439a13.544 13.544 0 0 0-6-1.371c-2.81 0-5.41.859-7.543 2.314C71.269 4.743 69.11 8.568 69.11 12.9c0 4.766 2.613 8.961 6.473 11.223 1.895 1.02 4.108 1.589 6.523 1.589 3.045 0 5.819-.967 8.021-2.613 3.02-2.388 4.973-6.08 4.973-10.2z"/><path fill="#df8e4a" d="M82.103 12.9h12.81c0-7.045-5.765-12.81-12.81-12.81-.111 0-.22.002-.33.004h-.009c-6.89.18-12.474 5.874-12.474 12.807a12.911 12.911 0 0 0 8.663 12.208 14.21 14.21 0 0 0 4.149.605c1.789 0 3.483-.335 5.025-.944a12.916 12.916 0 0 0 7.785-11.868h-12.81z"/><path fill="#df904a" d="M82.101 12.9h12.72C94.82 5.946 89.146.18 82.1.18S69.38 5.946 69.38 12.9a12.693 12.693 0 0 0 12.721 12.72 12.693 12.693 0 0 0 12.72-12.72H82.1z"/><path fill="#e0914c" d="M82.1 12.897h12.628C94.728 5.943 89.053.36 82.1.36c-6.956 0-12.63 5.583-12.63 12.537 0 6.956 5.674 12.63 12.63 12.63 6.953 0 12.628-5.675 12.628-12.63z"/><path fill="#e0914e" d="M82.098 12.895h12.536C94.634 6.032 88.96.45 82.098.45 75.234.45 69.56 6.032 69.56 12.895c0 6.956 5.674 12.537 12.538 12.537s12.536-5.581 12.536-12.537z"/><path fill="#df924f" d="M82.105 12.894H94.46C94.459 6.123 88.968.54 82.105.54 75.241.54 69.75 6.123 69.75 12.894c0 6.864 5.491 12.445 12.355 12.445 6.864 0 12.354-5.581 12.354-12.445z"/><path fill="#e09351" d="M82.104 12.902h12.262C94.366 6.13 88.875.64 82.104.64 75.33.64 69.84 6.131 69.84 12.902c0 6.771 5.491 12.263 12.264 12.263 6.77 0 12.262-5.492 12.262-12.263z"/><path fill="#e09552" d="M82.102 12.9h12.17c0-6.681-5.491-12.08-12.17-12.08C75.421.82 69.93 6.219 69.93 12.9c0 6.77 5.491 12.17 12.172 12.17 6.68 0 12.17-5.4 12.17-12.17z"/><path fill="#e09554" d="M82.1 12.898h11.988C94.088 6.31 88.78.91 82.101.91 75.42.91 70.02 6.31 70.02 12.898c0 6.68 5.4 12.079 12.08 12.079s11.988-5.399 11.988-12.08z"/><path fill="#e09555" d="M82.097 12.896h11.896A11.874 11.874 0 0 0 82.097 1 11.873 11.873 0 0 0 70.2 12.896c0 6.589 5.307 11.989 11.897 11.989 6.587 0 11.896-5.4 11.896-11.989z"/><path fill="#e19756" d="M82.106 12.895H93.91c0-6.498-5.307-11.805-11.804-11.805-6.498 0-11.806 5.307-11.806 11.805A11.776 11.776 0 0 0 82.106 24.7 11.775 11.775 0 0 0 93.91 12.895H82.106z"/><path fill="#e19757" d="M82.104 12.902h11.712c0-6.405-5.215-11.622-11.712-11.622-6.498 0-11.714 5.217-11.714 11.622a11.677 11.677 0 0 0 11.714 11.713 11.677 11.677 0 0 0 11.712-11.713z"/><path fill="#e29959" d="M82.103 12.9h11.529c0-6.405-5.125-11.53-11.53-11.53-6.406 0-11.622 5.125-11.622 11.53 0 6.406 5.217 11.622 11.623 11.622 6.405 0 11.529-5.217 11.529-11.622h-11.53z"/><path fill="#e2995b" d="M82.1 12.899h11.437c0-6.315-5.125-11.439-11.437-11.439-6.316 0-11.44 5.124-11.44 11.439 0 6.314 5.125 11.53 11.44 11.53 6.312 0 11.437-5.216 11.437-11.53z"/><path fill="#e29b5b" d="M82.098 12.897h11.345c0-6.222-5.125-11.347-11.345-11.347-6.224 0-11.348 5.125-11.348 11.347 0 6.315 5.125 11.347 11.348 11.347 6.221 0 11.345-5.032 11.345-11.347z"/><path fill="#e29b5d" d="M82.107 12.894h11.255c0-6.131-5.034-11.164-11.255-11.164-6.224 0-11.257 5.033-11.257 11.164A11.248 11.248 0 0 0 82.107 24.15a11.249 11.249 0 0 0 11.255-11.256z"/><path fill="#e39d5f" d="M82.104 12.903h11.071A11.051 11.051 0 0 0 82.104 1.83 11.052 11.052 0 0 0 71.03 12.903c0 6.131 4.941 11.165 11.074 11.165 6.13 0 11.071-5.034 11.071-11.165H82.104z"/><path fill="#e39d61" d="M82.102 12.901h10.98c0-6.04-4.94-10.981-10.98-10.981S71.12 6.861 71.12 12.901c0 6.132 4.941 11.073 10.982 11.073 6.04 0 10.98-4.941 10.98-11.073z"/><path fill="#e39f63" d="M82.1 12.9h10.89c0-5.949-4.85-10.89-10.89-10.89-6.04 0-10.89 4.941-10.89 10.89 0 6.04 4.85 10.89 10.89 10.89 6.04 0 10.89-4.85 10.89-10.89z"/><path fill="#e39f63" d="M82.1 12.897h10.796c0-5.949-4.85-10.707-10.797-10.707-5.95 0-10.799 4.758-10.799 10.707 0 5.948 4.85 10.799 10.8 10.799 5.946 0 10.796-4.85 10.796-10.8z"/><path fill="#e39f64" d="M82.106 12.895H92.72c0-5.856-4.757-10.615-10.614-10.615-5.858 0-10.616 4.758-10.616 10.615 0 5.949 4.758 10.707 10.616 10.707 5.857 0 10.614-4.758 10.614-10.707z"/><path fill="#e4a166" d="M82.105 12.894h10.523c0-5.765-4.666-10.524-10.523-10.524-5.858 0-10.525 4.76-10.525 10.524 0 5.857 4.667 10.616 10.525 10.616 5.857 0 10.523-4.76 10.523-10.616z"/><path fill="#e4a367" d="M82.103 12.902h10.432A10.428 10.428 0 0 0 82.103 2.47 10.427 10.427 0 0 0 71.67 12.902a10.428 10.428 0 0 0 10.433 10.433 10.428 10.428 0 0 0 10.432-10.433z"/><path fill="#e4a369" d="M82.102 12.9h10.34c0-5.674-4.667-10.25-10.34-10.25-5.675 0-10.342 4.575-10.342 10.25 0 5.765 4.667 10.34 10.342 10.34 5.673 0 10.34-4.575 10.34-10.34z"/><path fill="#e4a36a" d="M82.099 12.898h10.158A10.136 10.136 0 0 0 82.099 2.74 10.135 10.135 0 0 0 71.94 12.898c0 5.674 4.484 10.25 10.159 10.25 5.673 0 10.158-4.576 10.158-10.25z"/><path fill="#e5a56c" d="M82.097 12.896h10.066A10.038 10.038 0 0 0 82.097 2.83 10.037 10.037 0 0 0 72.03 12.896c0 5.583 4.484 10.158 10.067 10.158 5.581 0 10.066-4.575 10.066-10.158z"/><path fill="#e5a56c" d="M82.106 12.894h9.974c0-5.49-4.485-9.974-9.974-9.974-5.492 0-9.976 4.484-9.976 9.974 0 5.491 4.484 9.975 9.976 9.975 5.489 0 9.974-4.484 9.974-9.975z"/><path fill="#e5a76e" d="M82.104 12.901h9.882c0-5.399-4.483-9.791-9.882-9.791-5.4 0-9.884 4.392-9.884 9.791 0 5.491 4.484 9.882 9.884 9.882 5.399 0 9.882-4.391 9.882-9.882z"/><path fill="#e5a770" d="M82.1 12.9h9.7c0-5.308-4.301-9.7-9.7-9.7-5.4 0-9.7 4.392-9.7 9.7 0 5.399 4.3 9.791 9.7 9.791 5.399 0 9.7-4.392 9.7-9.792h-9.7z"/><path fill="#e6a970" d="M82.1 12.898h9.607c0-5.307-4.3-9.608-9.607-9.608-5.31 0-9.61 4.3-9.61 9.608 0 5.308 4.3 9.609 9.61 9.609 5.307 0 9.607-4.3 9.607-9.609z"/><path fill="#e6a972" d="M82.098 12.897h9.516c0-5.216-4.3-9.517-9.516-9.517-5.217 0-9.518 4.3-9.518 9.517 0 5.308 4.3 9.516 9.518 9.516 5.215 0 9.516-4.208 9.516-9.516z"/><path fill="#e6ab74" d="M82.097 12.904h9.425c0-5.125-4.21-9.334-9.425-9.334-5.218 0-9.427 4.21-9.427 9.334a9.413 9.413 0 0 0 9.427 9.425 9.413 9.413 0 0 0 9.425-9.425h-9.425z"/><path fill="#e6ab75" d="M82.104 12.902h9.241a9.217 9.217 0 0 0-9.241-9.242 9.217 9.217 0 0 0-9.244 9.242c0 5.125 4.118 9.334 9.244 9.334 5.123 0 9.241-4.209 9.241-9.334h-9.241z"/><path fill="#e7ad77" d="M82.102 12.9h9.15c0-5.033-4.117-9.15-9.15-9.15S72.95 7.868 72.95 12.9a9.12 9.12 0 0 0 9.152 9.152 9.119 9.119 0 0 0 9.15-9.151z"/><path fill="#e7ad77" d="M82.1 12.9h9.06c0-4.942-4.026-9.06-9.06-9.06-5.033 0-9.06 4.118-9.06 9.06a9.022 9.022 0 0 0 9.06 9.059 9.022 9.022 0 0 0 9.06-9.06z"/><path fill="#e8af79" d="M82.1 12.897h8.967c0-4.941-4.026-8.877-8.968-8.877s-8.969 3.936-8.969 8.877c0 4.942 4.026 8.968 8.97 8.968 4.94 0 8.967-4.026 8.967-8.968z"/><path fill="#e8af7b" d="M82.106 12.895h8.784c0-4.85-3.935-8.785-8.784-8.785-4.85 0-8.786 3.935-8.786 8.785 0 4.942 3.935 8.877 8.786 8.877 4.85 0 8.784-3.935 8.784-8.877z"/><path fill="#e8b17b" d="M82.105 12.894h8.693c0-4.758-3.844-8.694-8.693-8.694-4.85 0-8.695 3.936-8.695 8.694 0 4.85 3.843 8.694 8.695 8.694 4.849 0 8.693-3.843 8.693-8.694z"/><path fill="#e8b17d" d="M82.103 12.902h8.602A8.593 8.593 0 0 0 82.103 4.3a8.593 8.593 0 0 0-8.603 8.602 8.593 8.593 0 0 0 8.603 8.602 8.594 8.594 0 0 0 8.602-8.602h-8.602z"/><path fill="#e8b17e" d="M82.102 12.899h8.51c0-4.667-3.843-8.419-8.51-8.419-4.668 0-8.512 3.752-8.512 8.419 0 4.666 3.843 8.51 8.512 8.51 4.667 0 8.51-3.843 8.51-8.51z"/><path fill="#e9b381" d="M82.098 12.897h8.327c0-4.575-3.753-8.327-8.327-8.327a8.3 8.3 0 0 0-8.328 8.327c0 4.667 3.66 8.419 8.328 8.419 4.574 0 8.327-3.752 8.327-8.419h-8.327z"/><path fill="#e9b381" d="M82.107 12.896h8.234a8.201 8.201 0 0 0-8.234-8.236 8.202 8.202 0 0 0-8.237 8.236 8.203 8.203 0 0 0 8.237 8.236 8.202 8.202 0 0 0 8.234-8.236z"/><path fill="#e9b583" d="M82.105 12.894h8.143c0-4.484-3.66-8.144-8.143-8.144-4.485 0-8.145 3.66-8.145 8.144s3.66 8.144 8.145 8.144c4.483 0 8.143-3.66 8.143-8.144h-8.143z"/><path fill="#e9b584" d="M82.104 12.901h8.052c0-4.392-3.662-7.961-8.052-7.961-4.394 0-8.054 3.569-8.054 7.961 0 4.484 3.66 8.053 8.054 8.053 4.39 0 8.052-3.569 8.052-8.053h-8.052z"/><path fill="#eab786" d="M82.1 12.9h7.87c0-4.301-3.479-7.87-7.87-7.87-4.393 0-7.87 3.569-7.87 7.87 0 4.392 3.477 7.96 7.87 7.96 4.391 0 7.87-3.568 7.87-7.96z"/><path fill="#eab788" d="M82.1 12.898h7.776A7.771 7.771 0 0 0 82.1 5.12a7.772 7.772 0 0 0-7.779 7.778 7.772 7.772 0 0 0 7.78 7.778 7.771 7.771 0 0 0 7.776-7.778H82.1z"/><path fill="#ebb989" d="M82.098 12.897h7.685c0-4.21-3.477-7.687-7.685-7.687-4.21 0-7.688 3.477-7.688 7.687 0 4.3 3.477 7.687 7.688 7.687a7.673 7.673 0 0 0 7.685-7.687z"/><path fill="#ebb98a" d="M82.106 12.894h7.595c0-4.118-3.385-7.504-7.595-7.504s-7.596 3.386-7.596 7.504a7.577 7.577 0 0 0 7.596 7.595 7.577 7.577 0 0 0 7.595-7.595h-7.595z"/><path fill="#ebbb8c" d="M82.103 12.902h7.412a7.381 7.381 0 0 0-7.412-7.412 7.381 7.381 0 0 0-7.413 7.412c0 4.12 3.294 7.505 7.413 7.505 4.117 0 7.412-3.386 7.412-7.505z"/><path fill="#ebbb8c" d="M82.102 12.9h7.319c0-4.026-3.293-7.32-7.32-7.32S74.78 8.874 74.78 12.9c0 4.119 3.294 7.322 7.322 7.322 4.026 0 7.319-3.202 7.319-7.321z"/><path fill="#ecbd8f" d="M82.1 12.9h7.23c0-3.936-3.202-7.23-7.23-7.23-4.027 0-7.23 3.294-7.23 7.23a7.187 7.187 0 0 0 7.23 7.229 7.186 7.186 0 0 0 7.23-7.23z"/><path fill="#ecbd90" d="M82.099 12.896h7.137c0-3.935-3.202-7.046-7.137-7.046-3.936 0-7.139 3.11-7.139 7.046 0 3.936 3.203 7.139 7.139 7.139 3.935 0 7.137-3.203 7.137-7.139z"/><path fill="#ecbf93" d="M82.106 12.895h6.953a6.951 6.951 0 0 0-6.953-6.955 6.952 6.952 0 0 0-6.956 6.955c0 3.843 3.111 7.046 6.956 7.046 3.842 0 6.953-3.203 6.953-7.046z"/><path fill="#ecbf93" d="M82.104 12.903h6.864c0-3.752-3.113-6.863-6.864-6.863a6.854 6.854 0 0 0-6.864 6.863c0 3.844 3.02 6.864 6.864 6.864 3.751 0 6.864-3.02 6.864-6.864z"/><path fill="#edc195" d="M82.103 12.902h6.77a6.757 6.757 0 0 0-6.77-6.772 6.756 6.756 0 0 0-6.773 6.772 6.756 6.756 0 0 0 6.773 6.772 6.756 6.756 0 0 0 6.77-6.772h-6.77z"/><path fill="#edc196" d="M82.101 12.898h6.68c0-3.66-3.018-6.588-6.68-6.588-3.661 0-6.681 2.929-6.681 6.588 0 3.66 3.02 6.68 6.681 6.68 3.66 0 6.68-3.02 6.68-6.68z"/><path fill="#eec397" d="M82.098 12.897h6.497c0-3.568-2.929-6.497-6.497-6.497-3.57 0-6.498 2.929-6.498 6.497 0 3.66 2.929 6.59 6.498 6.59 3.57 0 6.497-2.93 6.497-6.59h-6.497z"/><path fill="#eec399" d="M82.097 12.895h6.405c0-3.477-2.836-6.405-6.405-6.405-3.57 0-6.407 2.929-6.407 6.405a6.367 6.367 0 0 0 6.407 6.406 6.366 6.366 0 0 0 6.405-6.406z"/><path fill="#eec59b" d="M82.105 12.894h6.313c0-3.477-2.836-6.314-6.313-6.314-3.478 0-6.315 2.837-6.315 6.314 0 3.479 2.837 6.315 6.315 6.315 3.477 0 6.313-2.836 6.313-6.315z"/><path fill="#eec69d" d="M82.104 12.901h6.221c0-3.385-2.836-6.131-6.221-6.131-3.387 0-6.224 2.746-6.224 6.131 0 3.479 2.837 6.223 6.224 6.223 3.385 0 6.221-2.744 6.221-6.223z"/><path fill="#eec69f" d="M82.1 12.9h6.04c0-3.294-2.654-6.04-6.04-6.04s-6.04 2.746-6.04 6.04c0 3.386 2.654 6.131 6.04 6.131s6.04-2.745 6.04-6.131z"/><path fill="#efc89f" d="M82.1 12.899h5.946A5.937 5.937 0 0 0 82.1 6.95a5.937 5.937 0 0 0-5.949 5.949 5.937 5.937 0 0 0 5.95 5.948 5.936 5.936 0 0 0 5.946-5.948H82.1z"/><path fill="#efc8a1" d="M82.098 12.896h5.857c0-3.202-2.654-5.856-5.857-5.856-3.204 0-5.858 2.654-5.858 5.856a5.84 5.84 0 0 0 5.858 5.857 5.84 5.84 0 0 0 5.857-5.857h-5.857z"/><path fill="#efcaa3" d="M82.106 12.903h5.765c0-3.11-2.562-5.673-5.765-5.673s-5.766 2.563-5.766 5.673a5.742 5.742 0 0 0 5.766 5.766 5.742 5.742 0 0 0 5.765-5.766h-5.765z"/><path fill="#efcaa3" d="M82.104 12.902h5.58a5.545 5.545 0 0 0-5.58-5.582 5.547 5.547 0 0 0-5.584 5.582c0 3.111 2.471 5.674 5.584 5.674 3.11 0 5.58-2.562 5.58-5.674h-5.58z"/><path fill="#f0cca6" d="M82.102 12.9h5.49c0-3.02-2.471-5.49-5.49-5.49-3.02 0-5.492 2.47-5.492 5.49s2.471 5.491 5.492 5.491c3.018 0 5.49-2.47 5.49-5.49h-5.49z"/><path fill="#f0cca8" d="M82.1 12.899h5.4c0-2.928-2.473-5.399-5.4-5.399-3.02 0-5.4 2.471-5.4 5.399 0 3.02 2.38 5.4 5.4 5.4 2.927 0 5.4-2.38 5.4-5.4z"/><path fill="#f1ceaa" d="M82.099 12.896h5.307c0-2.928-2.38-5.216-5.307-5.216-2.929 0-5.309 2.288-5.309 5.216a5.312 5.312 0 0 0 5.309 5.308 5.312 5.312 0 0 0 5.307-5.308H82.1z"/><path fill="#f1ceaa" d="M82.106 12.894h5.123a5.114 5.114 0 0 0-5.123-5.124 5.116 5.116 0 0 0-5.126 5.124c0 2.837 2.288 5.217 5.126 5.217 2.836 0 5.123-2.38 5.123-5.217h-5.123z"/><path fill="#f1d0ad" d="M82.104 12.894h5.032c0-2.745-2.288-5.034-5.032-5.034-2.747 0-5.034 2.288-5.034 5.034a5.019 5.019 0 0 0 5.034 5.033 5.018 5.018 0 0 0 5.032-5.033h-5.032z"/><path fill="#f1d0ae" d="M82.102 12.901h4.94c0-2.654-2.196-4.941-4.94-4.941-2.746 0-4.942 2.287-4.942 4.941a4.92 4.92 0 0 0 4.942 4.942 4.92 4.92 0 0 0 4.94-4.942z"/><path fill="#f2d2b1" d="M82.1 12.898h4.85c0-2.654-2.197-4.758-4.85-4.758-2.653 0-4.85 2.104-4.85 4.758s2.197 4.85 4.85 4.85c2.653 0 4.85-2.197 4.85-4.85z"/><path fill="#f2d2b3" d="M82.098 12.897h4.666c0-2.562-2.106-4.667-4.666-4.667-2.563 0-4.668 2.105-4.668 4.667 0 2.654 2.106 4.758 4.668 4.758 2.56 0 4.666-2.105 4.666-4.758z"/><path fill="#f3d4b4" d="M82.106 12.895h4.575c0-2.47-2.015-4.575-4.575-4.575-2.562 0-4.576 2.104-4.576 4.575a4.532 4.532 0 0 0 4.576 4.576 4.533 4.533 0 0 0 4.575-4.576z"/><path fill="#f3d4b5" d="M82.105 12.894h4.483a4.49 4.49 0 0 0-4.483-4.484 4.491 4.491 0 0 0-4.485 4.484 4.491 4.491 0 0 0 4.485 4.484 4.49 4.49 0 0 0 4.483-4.484z"/><path fill="#f3d4b7" d="M82.103 12.9h4.39c0-2.378-2.012-4.3-4.39-4.3-2.38 0-4.393 1.922-4.393 4.3 0 2.472 2.014 4.393 4.393 4.393s4.39-1.922 4.39-4.392z"/><path fill="#f3d6b8" d="M82.1 12.9h4.209A4.198 4.198 0 0 0 82.1 8.69a4.198 4.198 0 0 0-4.21 4.21c0 2.379 1.83 4.3 4.21 4.3 2.379 0 4.209-1.922 4.209-4.3H82.1z"/><path fill="#f4d8ba" d="M82.099 12.898h4.117a4.101 4.101 0 0 0-4.117-4.118 4.102 4.102 0 0 0-4.119 4.118 4.102 4.102 0 0 0 4.119 4.118 4.101 4.101 0 0 0 4.117-4.118z"/><path fill="#f4d9bc" d="M82.097 12.896h4.027c0-2.196-1.831-4.026-4.027-4.026-2.195 0-4.027 1.83-4.027 4.026a4.004 4.004 0 0 0 4.027 4.027 4.004 4.004 0 0 0 4.027-4.027z"/><path fill="#f4d9be" d="M82.106 12.903h3.935c0-2.105-1.739-3.843-3.935-3.843-2.197 0-3.936 1.738-3.936 3.843a3.906 3.906 0 0 0 3.936 3.935 3.906 3.906 0 0 0 3.935-3.935h-3.935z"/><path fill="#f4dbbf" d="M82.103 12.902h3.75c0-2.105-1.646-3.752-3.75-3.752-2.106 0-3.753 1.647-3.753 3.752 0 2.105 1.647 3.843 3.753 3.843 2.104 0 3.75-1.739 3.75-3.843z"/><path fill="#f4dbc0" d="M82.101 12.9h3.66a3.671 3.671 0 0 0-3.66-3.66 3.67 3.67 0 0 0-3.661 3.66 3.67 3.67 0 0 0 3.661 3.66 3.671 3.671 0 0 0 3.66-3.66h-3.66z"/><path fill="#f5ddc3" d="M82.1 12.899h3.569c0-1.922-1.648-3.569-3.57-3.569-1.921 0-3.569 1.647-3.569 3.569 0 2.014 1.648 3.569 3.57 3.569 1.92 0 3.569-1.555 3.569-3.57z"/><path fill="#f5ddc3" d="M82.098 12.896h3.477c0-1.83-1.556-3.386-3.477-3.386-1.922 0-3.478 1.555-3.478 3.386a3.477 3.477 0 0 0 6.955 0z"/><path fill="#f6dfc6" d="M82.105 12.904h3.293a3.278 3.278 0 0 0-3.293-3.294 3.28 3.28 0 0 0-3.295 3.294c0 1.83 1.465 3.385 3.295 3.385 1.831 0 3.293-1.555 3.293-3.385z"/><path fill="#f6dfc7" d="M82.104 12.902h3.202c0-1.74-1.464-3.202-3.202-3.202-1.74 0-3.204 1.464-3.204 3.202a3.183 3.183 0 0 0 3.204 3.203 3.182 3.182 0 0 0 3.202-3.203z"/><path fill="#f6e1ca" d="M82.102 12.9h3.111c0-1.646-1.372-3.11-3.11-3.11-1.74 0-3.113 1.464-3.113 3.11a3.086 3.086 0 0 0 3.112 3.112 3.086 3.086 0 0 0 3.111-3.111z"/><path fill="#f6e1cc" d="M82.1 12.898h3.02c0-1.647-1.373-2.928-3.02-2.928s-3.02 1.28-3.02 2.928c0 1.647 1.372 3.02 3.02 3.02s3.02-1.373 3.02-3.02z"/><path fill="#f7e3cd" d="M82.098 12.897h2.836a2.851 2.851 0 0 0-2.836-2.837 2.851 2.851 0 0 0-2.838 2.837c0 1.648 1.282 2.929 2.838 2.929 1.554 0 2.836-1.281 2.836-2.929h-2.836z"/><path fill="#f7e3cf" d="M82.106 12.895h2.745c0-1.464-1.19-2.745-2.745-2.745-1.556 0-2.746 1.28-2.746 2.745 0 1.555 1.19 2.745 2.746 2.745 1.555 0 2.745-1.19 2.745-2.745z"/><path fill="#f7e3d0" d="M82.106 12.894h2.652a2.656 2.656 0 0 0-2.652-2.654 2.655 2.655 0 0 0 0 5.308 2.655 2.655 0 0 0 2.652-2.654h-2.652z"/><path fill="#f8e5d1" d="M82.103 12.901h2.56c0-1.372-1.188-2.471-2.56-2.471-1.375 0-2.563 1.099-2.563 2.471a2.557 2.557 0 0 0 2.563 2.563 2.556 2.556 0 0 0 2.56-2.563h-2.56z"/><path fill="#f8e8d4" d="M82.1 12.899h2.38a2.362 2.362 0 0 0-2.38-2.379 2.363 2.363 0 0 0-2.38 2.379c0 1.372 1.006 2.47 2.38 2.47 1.373 0 2.38-1.097 2.38-2.47H82.1z"/><path fill="#f8e8d6" d="M82.098 12.898h2.286a2.265 2.265 0 0 0-2.286-2.288 2.266 2.266 0 0 0-2.288 2.288 2.265 2.265 0 0 0 2.288 2.288 2.265 2.265 0 0 0 2.286-2.288h-2.286z"/><path fill="#f8e8d8" d="M82.107 12.895h2.196c0-1.19-1.008-2.105-2.196-2.105-1.19 0-2.197.915-2.197 2.105s1.006 2.197 2.197 2.197c1.188 0 2.196-1.007 2.196-2.197z"/><path fill="#f9ead9" d="M82.106 12.894h2.104c0-1.098-1.008-2.014-2.104-2.014-1.1 0-2.106.916-2.106 2.014 0 1.189 1.006 2.105 2.106 2.105 1.096 0 2.104-.915 2.104-2.105z"/><path fill="#faecdc" d="M82.102 12.902h1.92c0-1.006-.824-1.922-1.92-1.922-1.1 0-1.922.915-1.922 1.922 0 1.099.823 2.014 1.922 2.014 1.096 0 1.92-.915 1.92-2.014z"/><path fill="#faecdd" d="M82.1 12.9h1.831a1.837 1.837 0 0 0-1.83-1.83 1.834 1.834 0 0 0-1.831 1.83c0 1.008.823 1.831 1.83 1.831a1.836 1.836 0 0 0 1.831-1.83h-1.83z"/><path fill="#faecdf" d="M82.1 12.897h1.738c0-.915-.824-1.647-1.738-1.647-.916 0-1.74.732-1.74 1.647a1.739 1.739 0 1 0 3.478 0H82.1z"/><path fill="#faeee0" d="M82.098 12.895h1.646c0-.823-.731-1.555-1.646-1.555-.916 0-1.648.732-1.648 1.555a1.64 1.64 0 0 0 1.648 1.648 1.64 1.64 0 0 0 1.646-1.648z"/><path fill="#fbf0e3" d="M82.106 12.894h1.463c0-.824-.642-1.464-1.463-1.464-.825 0-1.466.64-1.466 1.464 0 .823.642 1.555 1.466 1.555.822 0 1.463-.732 1.463-1.555z"/><path fill="#fbf1e5" d="M82.104 12.902h1.372c0-.732-.642-1.372-1.372-1.372-.732 0-1.374.64-1.374 1.372 0 .824.642 1.373 1.374 1.373.73 0 1.372-.55 1.372-1.373z"/><path fill="#fbf1e7" d="M82.102 12.9h1.28c0-.641-.55-1.19-1.28-1.19-.732 0-1.282.549-1.282 1.19 0 .732.55 1.281 1.282 1.281.73 0 1.28-.549 1.28-1.282z"/><path fill="#fcf3e8" d="M82.1 12.898h1.189c0-.64-.548-1.098-1.189-1.098-.642 0-1.19.457-1.19 1.098s.548 1.19 1.19 1.19a1.21 1.21 0 0 0 1.189-1.19z"/><path fill="#fcf3ea" d="M82.098 12.896h1.006c0-.549-.458-1.006-1.006-1.006-.55 0-1.008.458-1.008 1.006 0 .642.458 1.1 1.008 1.1.548 0 1.006-.458 1.006-1.1z"/><path fill="#fcf5ed" d="M82.106 12.895h.914a.917.917 0 0 0-.914-.915.917.917 0 0 0-.916.915c0 .55.366.916.916.916.548 0 .914-.366.914-.916z"/><path fill="#fcf5ef" d="M82.104 12.902h.823c0-.458-.366-.732-.823-.732-.458 0-.824.274-.824.732a.82.82 0 0 0 .824.823.82.82 0 0 0 .823-.823h-.823z"/><path fill="#fdf8f1" d="M82.102 12.9h.73c0-.366-.366-.64-.73-.64-.366 0-.732.275-.732.64 0 .366.366.733.732.733.364 0 .73-.367.73-.733z"/><path fill="#fdf8f3" d="M82.1 12.899h.548c0-.275-.275-.549-.548-.549-.276 0-.55.274-.55.549 0 .366.274.641.55.641.274 0 .548-.275.548-.641z"/><path fill="#fdf8f5" d="M82.098 12.897h.457c0-.183-.182-.457-.457-.457-.276 0-.458.274-.458.457 0 .275.182.458.458.458.275 0 .457-.183.457-.458z"/><path fill="#fefbf6" d="M82.105 12.898h.364c0-.183-.182-.274-.364-.274-.184 0-.366.091-.366.274 0 .183.182.366.366.366.182 0 .364-.183.364-.366z"/><path fill="#fffffb" d="M82.101 12.898h.182c0-.091-.092-.183-.182-.183-.092 0-.276.092-.276.183 0 .183.184.275.276.275.09 0 .182-.092.182-.275z"/><path fill="#fff" d="M82.105 12.898h.09s0-.091-.09-.091c-.092 0-.092.091-.092.091 0 .092 0 .183.092.183.09 0 .09-.091.09-.183z"/></svg>