<svg xmlns="http://www.w3.org/2000/svg" viewBox="0 0 512 512"><path d="M335.754 175.996L255.75 456.011l246.013-280.015zM255.75 55.99l-80.005 120.006L115.742 55.99zm-80.005 120.006l80.005 280.015L9.736 175.996z" fill="#4dbbeb"/><path fill="#f0e6de" d="M115.742 55.99l60.003 120.006H9.736z"/><path fill="#4dbbeb" d="M395.758 55.99l-60.004 120.006L255.75 55.99z"/><path d="M395.758 55.99l106.005 120.006H335.754zm-140.008 0l-80.005 120.006 80.005 280.015 80.004-280.015z" fill="#f0e6de"/><path d="M323.004 256c0-4.52-3-8.34-7.12-9.581-.91-.27-1.88-.42-2.88-.42-5.52 0-10.001 4.48-10.001 10.001 0 4.62 3.13 8.51 7.39 9.651.83.23 1.71.35 2.61.35 5.52 0 10.001-4.48 10.001-10.001z"/><path d="M509.509 169.376L403.625 49.507l-.047-.053c-2.331-2.228-3.925-3.465-7.57-3.465H115.992c-3.431 0-5.281 1.278-7.57 3.465l-.047.053L2.492 169.376c-3.315 3.752-3.324 9.456-.018 13.221l246.013 280.015c.033.037.07.069.104.106.171.189.349.37.533.545.055.052.108.107.164.158.237.214.482.418.738.608.05.037.102.07.153.106.211.151.427.294.649.428.082.05.165.097.248.144.215.122.435.235.659.341.068.032.134.067.202.097.294.131.594.249.901.352.038.013.077.022.115.034.266.085.537.159.812.222.09.021.181.038.271.057.235.047.473.085.713.115.091.012.182.025.274.034.322.031.646.052.975.052H256c.329 0 .653-.021.975-.052.092-.009.183-.023.275-.034.24-.03.476-.068.711-.115.091-.018.182-.036.273-.057.275-.063.546-.136.812-.222.038-.012.077-.021.115-.034.307-.102.606-.221.9-.351.07-.031.137-.066.206-.099a9.886 9.886 0 0 0 1.554-.913c.05-.036.102-.068.151-.105.256-.191.501-.394.738-.608.056-.051.109-.106.165-.158.184-.175.362-.356.533-.545.033-.037.071-.069.104-.106l246.013-280.015c3.262-3.709 3.343-9.423-.016-13.221zM304.753 285.578c-5.309-1.521-10.847 1.554-12.365 6.864l-36.382 127.186-66.753-233.632h133.434l-8.288 28.554c-1.54 5.304 1.512 10.853 6.816 12.392 5.305 1.54 10.853-1.511 12.392-6.816l9.907-34.129h136.402L277.85 415.99l33.768-118.047c1.519-5.31-1.555-10.847-6.865-12.365zM113.676 73.719l46.139 92.278H32.164l81.512-92.278zm366.161 92.277H352.186l46.138-92.278 81.513 92.278zm-145.07-9.886l-60.08-90.12h105.141l-45.061 90.12zM132.174 65.99h105.141l-60.08 90.12-45.061-90.12zM256 74.019l61.318 91.977H194.682L256 74.019zm-87.548 111.978l65.72 230.018L32.085 185.997h136.367z"/></svg>