<svg xmlns="http://www.w3.org/2000/svg" viewBox="0 0 512 512"><g fill="#8bdb7d"><path d="M443.206 292.208L255.747 255.98l36.228 187.459c9.156 55.416 77.944 78.612 118.553 38.028 13.849-13.849 20.679-32.058 20.499-50.207 18.149.18 36.358-6.65 50.207-20.499 40.471-40.493 17.566-109.366-38.028-118.553zM481.234 101.2c-13.849-13.849-32.058-20.679-50.207-20.499.18-18.149-6.65-36.358-20.499-50.207-40.559-40.544-109.385-17.453-118.553 38.027L255.747 255.98l187.459-36.228c55.518-9.172 78.551-78.015 38.028-118.552zM100.966 30.494C87.117 44.343 80.287 62.552 80.467 80.701 62.319 80.521 44.11 87.35 30.26 101.2c-40.544 40.559-17.453 109.386 38.028 118.553l187.459 36.228-36.228-187.46c-9.172-55.517-78.015-78.549-118.553-38.027z"/><path d="M30.26 410.761c13.849 13.849 32.058 20.679 50.207 20.499-.18 18.149 6.65 36.358 20.499 50.207 40.495 40.471 109.368 17.566 118.553-38.028l36.228-187.459-187.459 36.228c-55.871 9.233-78.353 78.203-38.028 118.553z"/></g><path d="M348.352 149.487c-3.9 3.9-3.9 10.229 0 14.139 3.91 3.9 10.239 3.9 14.139 0 3.91-3.91 3.91-10.239 0-14.139-3.9-3.91-10.228-3.91-14.139 0zm14.139 212.987c3.91-3.9 3.91-10.229 0-14.139-3.9-3.9-10.229-3.9-14.139 0-3.9 3.91-3.9 10.239 0 14.139 3.911 3.91 10.239 3.91 14.139 0zM149.503 149.487c-3.91 3.9-3.91 10.229 0 14.139 3.9 3.9 10.229 3.9 14.139 0 3.9-3.91 3.9-10.239 0-14.139-3.909-3.91-10.238-3.91-14.139 0zm14.14 212.987c3.9-3.9 3.9-10.229 0-14.139-3.91-3.9-10.239-3.9-14.139 0-3.91 3.91-3.91 10.239 0 14.139 3.9 3.91 10.229 3.91 14.139 0z"/><path d="M23.44 417.833c13.031 13.031 29.716 20.997 47.75 22.956 1.959 18.033 9.926 34.72 22.958 47.752 46.37 46.341 124.908 19.882 135.464-43.33l26.385-136.53 26.386 136.529c10.566 63.281 89.123 89.643 135.466 43.328 13.03-13.031 20.997-29.716 22.956-47.749 18.032-1.959 34.721-9.926 47.752-22.958 46.256-46.285 20.009-124.887-43.331-135.464l-136.529-26.385 136.527-26.385c63.612-10.62 89.382-89.4 43.331-135.466-13.03-13.031-29.716-20.998-47.75-22.957-1.96-18.033-9.926-34.72-22.956-47.749l-.008-.008C371.787-22.612 292.983 3.288 282.383 66.754l-26.385 136.528-26.385-136.528c-10.624-63.611-89.4-89.381-135.467-43.33-13.03 13.03-20.996 29.718-22.956 47.75-18.033 1.959-34.72 9.925-47.751 22.958-46.12 46.137-20.153 124.863 43.331 135.465l136.528 26.385-136.529 26.384C2.328 293.128-22.216 372.148 23.44 417.833zm418.386-115.758c47.373 7.827 67.429 66.754 32.587 101.617-10.557 10.557-24.321 16.672-39.095 17.469l-44.538-44.537c-3.906-3.905-10.235-3.905-14.142 0-3.905 3.905-3.905 10.236 0 14.141l44.536 44.536c-.801 14.776-6.911 28.538-17.466 39.094-34.837 34.82-93.786 14.818-101.618-32.584-.015-.089-.03-.179-.048-.268l-33.421-172.938 172.937 33.421c.09.018.178.034.268.049zM302.043 70.419c.018-.089.033-.178.048-.268 7.881-47.695 67.106-67.078 101.614-32.59l.002.003c10.557 10.557 16.667 24.32 17.468 39.096l-44.537 44.536c-3.905 3.905-3.905 10.236 0 14.141 3.905 3.905 10.234 3.906 14.142 0l44.544-44.544c14.774.802 28.532 6.92 39.087 17.475 34.586 34.598 15.141 93.734-32.586 101.618-.09.015-.179.031-.268.048l-172.936 33.422 33.422-172.937zM70.168 209.887C22.483 202.009 2.974 142.89 37.582 108.27 48.138 97.713 61.896 91.596 76.67 90.794l44.544 44.544c3.905 3.905 10.236 3.905 14.142 0 3.905-3.905 3.905-10.236 0-14.142L90.819 76.661c.801-14.776 6.911-28.538 17.467-39.095 34.597-34.585 93.732-15.143 101.618 32.585.015.089.031.179.048.268l33.421 172.938-172.937-33.422a12.552 12.552 0 0 0-.268-.048zm.268 92.14l172.938-33.421-33.421 172.938a11.52 11.52 0 0 0-.048.268c-7.845 47.481-66.827 67.357-101.617 32.586-10.558-10.557-16.668-24.32-17.468-39.096l44.536-44.536c3.905-3.905 3.905-10.236 0-14.142-3.905-3.905-10.236-3.905-14.142 0l-44.538 44.538c-14.755-.795-28.537-6.914-39.092-17.468-34.371-34.392-15.621-93.655 32.584-101.619.089-.015.179-.031.268-.048z"/></svg>