<svg xmlns="http://www.w3.org/2000/svg" viewBox="0 0 512 512"><path d="M422.67 10.005L9.748 422.927c109.335 109.335 297.588 103.336 406.923-5.999s115.334-297.589 5.999-406.923z" fill="#8bdb7d"/><path d="M380.256 52.419c85.768 85.778 79.759 236.327-6.009 322.085-85.758 85.768-236.307 91.777-322.085 6.009L380.256 52.419z" fill="#fd6244"/><path d="M333.783 189.159c5.329-1.43 8.499-6.909 7.069-12.248-1.43-5.329-6.909-8.499-12.248-7.069-5.329 1.43-8.499 6.909-7.069 12.248 1.429 5.33 6.919 8.499 12.248 7.069zm-5.179 56.932c5.339 1.43 10.818-1.74 12.248-7.069 1.43-5.339-1.74-10.818-7.069-12.248-5.329-1.43-10.818 1.74-12.248 7.069-1.43 5.339 1.739 10.819 7.069 12.248zm-24.807 57.712c3.909-3.899 3.909-10.229 0-14.138-3.899-3.899-10.229-3.899-14.138 0-3.899 3.909-3.899 10.239 0 14.138 3.909 3.91 10.239 3.91 14.138 0zm-64.781 37.055c5.329-1.43 8.499-6.909 7.069-12.248-1.43-5.329-6.909-8.499-12.248-7.069-5.329 1.43-8.499 6.919-7.069 12.248 1.43 5.329 6.909 8.499 12.248 7.069zm-62.111 0c5.339 1.43 10.818-1.74 12.248-7.069 1.43-5.329-1.74-10.818-7.069-12.248-5.339-1.43-10.818 1.74-12.248 7.069-1.43 5.339 1.74 10.818 7.069 12.248z"/><path d="M429.991 2.935c-3.904-3.903-10.234-3.903-14.141 0L2.928 415.857c-3.904 3.904-3.904 10.236 0 14.14 113.056 113.054 307.608 107.455 421.064-5.999C537.465 310.52 543.059 116.004 429.991 2.935zm-49.672 63.812c75.583 83.899 65.533 222.272-12.892 300.687-78.537 78.548-216.972 88.313-300.69 12.895L380.319 66.747zm29.532 343.11C306.071 513.638 128.473 518.693 24.284 422.78l28.306-28.306c91.328 83.063 242.446 73.64 328.976-12.9 87.234-87.222 95.394-238.275 12.901-328.976l28.307-28.307c95.913 104.187 90.856 281.786-12.923 385.566z"/><path d="M332.082 346.229c3.905 3.904 10.235 3.904 14.141 0 3.904-3.904 3.904-10.236 0-14.14l-14.139-14.138c-3.905-3.904-10.235-3.904-14.141 0-3.904 3.904-3.904 10.236 0 14.14l14.139 14.138zm-170.704 52.58c5.335 1.433 10.818-1.74 12.246-7.068l5.179-19.317c1.43-5.333-1.735-10.816-7.068-12.246-5.332-1.432-10.816 1.734-12.246 7.068l-5.179 19.317c-1.43 5.333 1.735 10.816 7.068 12.246zM372.417 178.81l19.317-5.179c5.333-1.43 8.498-6.913 7.068-12.246-1.431-5.333-6.911-8.499-12.247-7.068l-19.317 5.179c-5.333 1.43-8.498 6.913-7.068 12.246 1.424 5.307 6.887 8.505 12.247 7.068zm-135.3 193.614l5.179 19.317c1.432 5.336 6.919 8.499 12.247 7.068 5.334-1.43 8.498-6.913 7.068-12.247l-5.18-19.317c-1.431-5.332-6.91-8.502-12.247-7.068-5.333 1.429-8.497 6.912-7.067 12.247zm130.121-115.985l19.317 5.179c5.357 1.438 10.823-1.759 12.247-7.068 1.43-5.333-1.735-10.816-7.068-12.247l-19.317-5.179c-5.339-1.434-10.816 1.734-12.247 7.068-1.43 5.334 1.735 10.817 7.068 12.247z"/></svg>