<svg xmlns="http://www.w3.org/2000/svg" viewBox="0 0 512 512"><path d="M415.75 406l66.95-202.07-38.06-15.08h-.01c-10.33 19.5-26.02 34.13-42.76 43.69-15.62 8.93-32.15 13.46-46.12 13.46-30.02 0-56.18-35.28-69.86-77.77-5.23-16.21-8.64-33.48-9.74-50.23l-.01-.01h-40.78l-.01.01c-1.1 16.75-4.51 34.02-9.74 50.23-13.68 42.49-39.84 77.77-69.86 77.77-13.97 0-30.5-4.53-46.12-13.46-16.74-9.56-32.43-24.19-42.76-43.69h-.01l-36.59 15.61-.52 1.54 66 200c-11.05 0-20 8.95-20 20s8.95 20 20 20h320c11.05 0 20-8.95 20-20s-8.95-20-20-20z" fill="#fedb51"/><path d="M482.7 203.93c-19.496 7.707-40.95-6.724-40.95-27.93 0-16.57 13.43-30 30-30s30 13.43 30 30c0 12.7-7.89 23.56-19.05 27.93zM69.75 176c0 20.468-20.141 34.949-39.48 28.46C18.34 200.5 9.75 189.25 9.75 176c0-16.57 13.43-30 30-30s30 13.43 30 30zm186-110c16.57 0 30 13.43 30 30 0 16.496-13.402 30-30 30-16.613 0-30-13.516-30-30 0-16.57 13.43-30 30-30zm100 240c11.05 0 20 8.95 20 20s-8.95 20-20 20-20-8.95-20-20 8.95-20 20-20zm-200 0c11.05 0 20 8.95 20 20s-8.95 20-20 20-20-8.95-20-20 8.95-20 20-20zm100-40c22.09 0 40 22.39 40 50s-17.91 50-40 50-40-22.39-40-50 17.91-50 40-50z" fill="#fd6244"/><path d="M401.87 232.54c-15.62 8.93-32.15 13.46-46.12 13.46-30.02 0-56.18-35.28-69.86-77.77 47.62 7.14 88.87 30.89 115.98 64.31zm-176.26-64.31C211.93 210.72 185.77 246 155.75 246c-13.97 0-30.5-4.53-46.12-13.46 27.11-33.42 68.36-57.17 115.98-64.31z" fill="#fea832"/><path d="M256 396c-5.52 0-10 4.48-10 10s4.48 10 10 10 10-4.48 10-10-4.48-10-10-10z"/><path d="M472 136c-22.056 0-40 17.944-40 40 0 4.143.636 8.176 1.865 12.052-8.691 14.709-19.969 24.803-29.732 31.448-27.939-31.142-66.596-52.231-110.242-60.112-3.617-12.474-6.049-25.366-7.164-37.817C292.662 114.434 296 105.366 296 96c0-22.056-17.944-40-40-40s-40 17.944-40 40c0 9.367 3.338 18.434 9.273 25.571-1.115 12.45-3.547 25.341-7.164 37.817-43.646 7.881-82.303 28.97-110.242 60.112-9.761-6.644-21.041-16.738-29.732-31.448A39.695 39.695 0 0 0 80 176c0-22.056-17.944-40-40-40S0 153.944 0 176a39.919 39.919 0 0 0 21.226 35.323l61.903 187.583C73.01 403.733 66 414.062 66 426c0 16.542 13.458 30 30 30h320c16.542 0 30-13.458 30-30 0-11.933-7.005-22.259-17.117-27.088l62.208-187.758C503.935 204.226 512 190.908 512 176c0-22.056-17.944-40-40-40zm0 20c11.028 0 20 8.972 20 20 0 8.213-4.896 15.456-12.514 18.538-.156.058-.313.113-.465.178C465.992 199.656 452 189.884 452 176c0-11.028 8.972-20 20-20zm-86.007 73.348C375.745 233.629 365.248 236 356 236c-19.426 0-40.195-21.324-54.278-54.52 32.931 8.051 62.105 24.609 84.271 47.868zM256 76c11.028 0 20 8.972 20 20 0 11.229-9.152 20-20 20-10.852 0-20-8.788-20-20 0-11.028 8.972-20 20-20zm-45.721 105.479C196.197 214.674 175.427 236 156 236c-9.247 0-19.743-2.371-29.992-6.652 22.166-23.259 51.339-39.818 84.271-47.869zM40 156c11.028 0 20 8.972 20 20 0 13.681-13.51 23.268-26.3 18.979l-.03-.011A19.944 19.944 0 0 1 20 176c0-11.028 8.972-20 20-20zm376 280H96c-5.514 0-10-4.486-10-10s4.486-10 10-10h120c5.522 0 10-4.478 10-10s-4.478-10-10-10H103.23L43.764 215.798c8.332-.798 16.143-4.203 22.366-9.562 10.025 14.146 23.217 26.094 38.788 34.986l.067.037.107.06C121.714 250.786 139.785 256 156 256c38.418 0 66.194-43.756 79.377-84.699l.016-.052c.04-.126.081-.251.116-.378a225.368 225.368 0 0 0 8.427-36.738A39.969 39.969 0 0 0 256 136a39.98 39.98 0 0 0 12.065-1.867 225.333 225.333 0 0 0 8.428 36.743c.03.111.066.219.1.328l.028.091C289.806 212.244 317.582 256 356 256c16.218 0 34.293-5.216 50.914-14.685l.097-.054.068-.038c15.573-8.893 28.767-20.842 38.792-34.989 6.283 5.411 14.183 8.833 22.604 9.589L408.779 396H296c-5.522 0-10 4.478-10 10s4.478 10 10 10h119.928c.025 0 .049.003.074.003l.031-.001c5.499.018 9.967 4.496 9.967 9.998 0 5.514-4.486 10-10 10z"/><path d="M306 316c0-33.084-22.43-60-50-60s-50 26.916-50 60 22.43 60 50 60 50-26.916 50-60zm-80 0c0-22.056 13.458-40 30-40s30 17.944 30 40-13.458 40-30 40-30-17.944-30-40zm130 40c16.542 0 30-13.458 30-30s-13.458-30-30-30-30 13.458-30 30 13.458 30 30 30zm0-40c5.514 0 10 4.486 10 10s-4.486 10-10 10-10-4.486-10-10 4.486-10 10-10zm-200-20c-16.542 0-30 13.458-30 30s13.458 30 30 30 30-13.458 30-30-13.458-30-30-30zm0 40c-5.514 0-10-4.486-10-10s4.486-10 10-10 10 4.486 10 10-4.486 10-10 10z"/></svg>