<svg xmlns="http://www.w3.org/2000/svg" viewBox="0 0 512 512"><path d="M188.95 24.657c43.05 24.85 57.94 80.28 57.94 80.28s-54.89 13.85-97.94-11-57.94-79.64-57.94-79.64 54.89-14.49 97.94 10.36z" fill="#8bdb7d"/><path d="M469.53 314.157c23.34 15.74 32.22 47.4 32.22 77.78 0 61.233-49.093 110-113 110-63.857 0-113-48.714-113-110 0-30.38 8.88-62.04 32.22-77.78 47.78-32.22 50.4 7.78 80.78 7.78s33-40 80.78-7.78zm-266 0c23.34 15.74 32.22 47.4 32.22 77.78 0 61.233-49.093 110-113 110-63.857 0-113-48.714-113-110 0-30.38 8.88-62.04 32.22-77.78 47.78-32.22 50.4 7.78 80.78 7.78s33-40 80.78-7.78z" fill="#fd6244"/><path d="M452 371.937c5.52 0 10-4.48 10-10s-4.48-10-10-10-10 4.48-10 10 4.48 10 10 10zm-266 0c5.52 0 10-4.48 10-10s-4.48-10-10-10-10 4.48-10 10 4.48 10 10 10zm-62.883 91.417c.845 5.468 5.964 9.198 11.41 8.355 35.674-5.512 64.17-35.366 66.283-69.443.342-5.513-3.85-10.258-9.361-10.6-5.499-.347-10.259 3.85-10.6 9.361-1.546 24.917-22.772 46.806-49.377 50.916-5.457.845-9.198 5.953-8.355 11.411zm334.177-71.667c-5.522-.355-10.26 3.845-10.604 9.356-1.552 24.84-22.721 46.711-49.24 50.875-5.456.856-9.185 5.974-8.328 11.43.865 5.509 6.036 9.182 11.43 8.328 35.561-5.583 63.977-35.412 66.1-69.385.343-5.512-3.846-10.259-9.358-10.604z"/><path d="M475.371 305.866c-15.848-10.688-28.773-15.169-40.7-14.106-11.129.992-18.944 6.608-25.84 11.563-5.598 4.023-10.219 7.331-16.164 8.311C313.328 253.185 266 123.091 266 29.937c0-5.522-4.478-10-10-10s-10 4.478-10 10c0 12.697-.887 26.085-2.606 39.882-9.751-18.293-25.463-40.123-49.195-53.822v-.001C148.111-10.608 91.111 3.994 88.707 4.628A10.003 10.003 0 0 0 81.61 16.92c.652 2.399 16.502 59.073 62.592 85.678 22.241 12.838 47.028 16.221 66.982 16.221 8.984 0 16.982-.687 23.333-1.504-18.534 75.01-58.763 152.831-115.176 194.32-13.705-2.254-22.199-18.109-42.012-19.875-11.925-1.067-24.852 3.419-40.7 14.106C13.351 321.564 0 352.936 0 391.937c0 67.664 54.42 120 123 120 68.763 0 123-52.505 123-120 0-39.001-13.351-70.373-36.629-86.071-15.237-10.275-27.774-14.798-39.313-14.189 42.587-48.697 71.83-115.976 85.945-178.407 14.154 62.546 43.441 129.757 85.98 178.409-11.548-.626-24.098 3.9-39.354 14.187C279.351 321.564 266 352.936 266 391.937c0 67.664 54.42 120 123 120 68.763 0 123-52.505 123-120 0-39.001-13.351-70.373-36.629-86.071zM154.199 85.276c-28.116-16.229-43.379-47.267-49.716-63.359 17.08-2.579 51.491-4.893 79.718 11.401v-.001c28.12 16.232 43.382 47.608 49.715 63.875-17.128 2.405-51.502 4.372-79.717-11.916zm43.99 237.172C223.29 339.375 226 376.683 226 391.937c0 57.008-45.937 100-103 100-57.164 0-103-43.109-103-100 0-15.254 2.71-52.562 27.811-69.489 11.681-7.877 19.526-10.785 25.775-10.785 15.505 0 24.273 20.274 49.414 20.274 14.283 0 23.831-6.86 31.503-12.373 11.49-8.256 19.079-13.71 43.686 2.884zM389 491.937c-57.164 0-103-43.109-103-100 0-15.254 2.71-52.562 27.811-69.489 11.681-7.877 19.526-10.785 25.775-10.785 6.916 0 11.876 3.564 17.911 7.901 7.672 5.513 17.22 12.373 31.503 12.373s23.831-6.86 31.503-12.373c11.49-8.256 19.079-13.71 43.687 2.884 25.1 16.927 27.81 54.235 27.81 69.489 0 57.008-45.937 100-103 100z"/></svg>