<svg xmlns="http://www.w3.org/2000/svg" viewBox="0 0 512 512"><path d="M485.75 54.33V77.6c0 10.14-3.58 19.85-10.05 27.27-32.15 36.85-130.72 177.33-137.92 374.28-.47 12.75-10.24 22.85-22.18 22.85H181.56c-12.26 0-22.18-10.56-22.25-23.64-.17-31.78 1.75-93.94 16.42-153.56 14.13-57.42 40.1-112.5 87.44-135.81-.944 0-42.629 8.452-66.77 0-16.776-5.843-32.588-10.626-50.65-7.27-14.032 2.616-23.55 16.301-23.55 31.04 0 17.42-13.35 32.24-29.68 32.24H55.43c-16.33 0-29.68-14.82-29.68-32.24V46.41C25.75 28.98 39.1 15 55.43 15h37.09c7.81 0 14.89 3.01 20.17 8.33 6.499 6.567 15.605 9.552 24.36 6.26C161.49 20.39 195.62 10 232.04 10c38.793 0 49.915 10.35 96.94 10.35 33.39 0 58.26-5.62 90-5.62 7.42 0 66.77 15.27 66.77 39.6z" fill="#fd6244"/><path d="M199.417 462h99.154c11.083-181.922 96.799-325.902 146.962-383.396.056-.08.216-.436.216-1.005V65.202c-7.88-4.289-21.621-9.023-29.083-10.46-28.042.281-52.772 5.607-87.687 5.607-14.348 0-28.806-1.062-43.736-3.224l-30.698-4.445c-37.411-5.418-68.316 1.136-103.413 14.349-21.04 7.912-44.987 3.778-63.114-12.029H65.75v150h16.859c3.309-31.359 25.798-57.008 55.835-62.607 35.402-6.579 71.274 8.88 71.17 8.844.425.148 4.446 1.454 14.565 1.454 19.145 0 31.303-3.7 38.99-3.7 18.597 0 34.74 12.816 38.958 30.929 4.217 18.112-4.604 36.742-21.288 44.957C215.78 256.91 200.761 388.452 199.417 462z" fill="#fedb51"/><path d="M236 60c5.52 0 10-4.48 10-10s-4.48-10-10-10-10 4.48-10 10 4.48 10 10 10z"/><path d="M496 77.6V54.33c0-14.707-12.318-27.523-36.613-38.094C443 9.107 424.955 4.73 419.23 4.73c-16.157 0-30.723 1.426-44.809 2.804-14.146 1.384-28.772 2.815-45.191 2.815-18.041 0-36.463-2.042-56.323-6.244C260.012 1.382 246.346 0 232.29 0c-30.125 0-62.349 6.617-98.511 20.23-4.632 1.74-9.664.176-13.741-3.944C112.815 9.008 103.131 5 92.77 5H55.68C33.8 5 16 23.576 16 46.41v166.35C16 236.051 33.8 255 55.68 255h37.09c21.88 0 39.68-18.949 39.68-42.24 0-5.182 1.632-10.217 4.602-14.187 5.084-6.806 11.632-7.943 20.968-7.943 26.003 0 31.36 12.061 66.41 12.061.788 0 1.624-.006 2.508-.019-27.129 26.004-47.468 66.094-60.669 119.738-14.939 60.717-16.881 123.803-16.709 156.004.099 18.52 14.566 33.586 32.25 33.586h134.04c17.37 0 31.502-14.268 32.173-32.484 3.047-83.341 22.796-165.222 58.698-243.368 33.913-73.817 69.896-116.83 76.767-124.705C491.556 102.188 496 90.169 496 77.6zm-20 0c0 7.736-2.694 15.087-7.585 20.696-20.803 23.844-52.709 70.385-79.868 129.502-37.008 80.555-57.367 164.999-60.51 250.984-.273 7.412-5.626 13.218-12.187 13.218H181.81c-6.714 0-12.21-6.143-12.25-13.693-.167-31.274 1.706-92.495 16.13-151.117 16.495-67.032 44.133-110.511 82.147-129.228a10 10 0 0 0-4.417-18.971c-.893 0-1.463.098-2.599.291-16.482 2.817-28.887 3.409-36.391 3.409-16.942 0-25.313-3.458-25.544-3.511-10.336-3.608-24.492-8.55-40.866-8.55-15.448 0-27.741 3.589-36.987 15.97-5.535 7.397-8.583 16.688-8.583 26.16 0 12.056-9.012 22.24-19.68 22.24H55.68C45.013 235 36 224.815 36 212.76V46.41C36 34.604 44.829 25 55.68 25h37.09c5.063 0 9.583 1.858 13.062 5.364 6.75 6.82 15.322 10.576 24.138 10.576 3.688 0 7.338-.67 10.853-1.992C174.695 26.198 204.614 20 232.29 20c12.669 0 24.944 1.236 36.48 3.673 21.234 4.493 41.011 6.677 60.46 6.677 17.395 0 32.516-1.479 47.139-2.91 14.206-1.391 27.624-2.703 42.766-2.709 2.885.185 17.998 3.529 32.988 10.159C469.747 42.685 476 50.233 476 54.33V77.6z"/><path d="M451.187 57.561c-11.057-6.707-26.635-9.297-33.562-12.059a9.938 9.938 0 0 0-3.985-.708c-12.113.338-23.701 1.65-34.891 2.918l-.239.027c-15.14 1.691-30.795 3.44-49.28 3.44-17.056 0-34.07-1.527-52.015-4.67-5.439-.947-10.622 2.687-11.575 8.126-.953 5.44 2.686 10.622 8.125 11.575 19.097 3.344 37.239 4.969 55.464 4.969 19.599 0 35.817-1.813 51.501-3.564l.254-.028c10.179-1.153 20.685-2.343 31.298-2.738 6.879 2.404 16.159 4.262 23.716 7.418v1.679c-21.354 25.654-52.852 72.279-80.061 129.877C318.155 283.81 295.813 367.25 289.475 452h-79.528c3.077-87.209 24.362-192.945 75.557-218.147 20.975-10.317 31.919-33.428 26.616-56.198-5.295-22.765-25.321-38.664-48.7-38.664-8.871 0-20.505 3.71-38.99 3.71-7.683 0-11.038-.845-11.429-.951-11.927-4.18-31.807-11.119-54.981-11.119-7.114 0-14.232.648-21.175 1.93-28.834 5.383-52.244 27.686-60.845 56.427V64h8.302c13.612 10.95 29.692 16.94 45.668 16.94a70.395 70.395 0 0 0 25.027-4.589c14.514-5.455 29.003-9.55 43.065-12.171 5.429-1.013 9.01-6.234 7.998-11.664-1.012-5.429-6.234-9.008-11.663-7.998-15.208 2.836-30.831 7.247-46.463 13.121a50.497 50.497 0 0 1-17.964 3.301c-12.277 0-24.851-5.128-35.404-14.439A10.003 10.003 0 0 0 87.95 44H66c-5.523 0-10 4.478-10 10v151c0 5.522 4.477 10 10 10h16.91a10 10 0 0 0 9.939-8.9c2.991-27.043 22.592-49.199 47.646-53.876a96.744 96.744 0 0 1 17.524-1.594c19.854 0 37.088 6.041 48.519 10.047 1.752.608 7.001 2.023 17.892 2.023 18.953 0 33.101-3.71 38.99-3.71 14.028 0 26.043 9.538 29.221 23.198 3.182 13.663-3.383 27.529-15.967 33.72-28.964 14.258-51.439 48.042-66.799 100.413-12 40.914-19.174 92.581-20.202 145.484a10 10 0 0 0 9.998 10.194h99.15a10 10 0 0 0 9.981-9.394C319.605 284.831 404.902 141.038 453.6 84.1a10.001 10.001 0 0 0 2.4-6.5V66.11a10 10 0 0 0-4.813-8.549z"/></svg>