<svg xmlns="http://www.w3.org/2000/svg" viewBox="0 0 512 512"><path d="M416.032 108.579a40.58 40.58 0 0 0 4.42-3.82c15.621-15.621 15.621-40.944 0-56.575-15.631-15.621-40.954-15.621-56.575 0a40.58 40.58 0 0 0-3.82 4.42C286.22 12.771 175.491 37.993 94.584 118.91 13.667 199.817-11.555 309.966 28.278 383.812c-1.54 1.14-2.45 2.42-3.84 3.82-15.631 15.621-15.631 40.944 0 56.565 15.621 15.631 40.944 15.631 56.565 0 1.4-1.39 2.68-2.87 3.82-4.41 39.473 21.292 89.308 23.992 139.512 9.551l.01-.01 181.186-151.413c34.243-65.746 38.873-136.752 10.501-189.336z" fill="#fedb51"/><path d="M141.718 297.915c0 99.146 80.366 180.015 180.015 180.015 99.419 0 180.015-80.597 180.015-180.015h-360.03z" fill="#fea832"/><path d="M181.721 297.915c0 77.205 62.803 140.012 140.012 140.012 77.205 0 140.012-62.803 140.012-140.012H181.721z" fill="#ffc478"/><path d="M330.984 107.899c5.52 0 10.001-4.48 10.001-10.001s-4.48-10.001-10.001-10.001c-5.52 0-10.001 4.48-10.001 10.001s4.481 10.001 10.001 10.001zm-40.003-20.002c5.52 0 10.001-4.48 10.001-10.001 0-5.52-4.48-10.001-10.001-10.001-5.52 0-10.001 4.48-10.001 10.001 0 5.521 4.48 10.001 10.001 10.001zm0 40.003c5.52 0 10.001-4.48 10.001-10.001s-4.48-10.001-10.001-10.001c-5.52 0-10.001 4.48-10.001 10.001s4.48 10.001 10.001 10.001zm-40.004-40.003c5.52 0 10.001-4.48 10.001-10.001 0-5.52-4.48-10.001-10.001-10.001s-10.001 4.48-10.001 10.001c.001 5.521 4.481 10.001 10.001 10.001zm-140.582 60.005c-5.52 0-10.001 4.48-10.001 10.001s4.48 10.001 10.001 10.001 10.001-4.48 10.001-10.001-4.48-10.001-10.001-10.001z"/><path d="M501.999 287.914H421.74c28.113-62.167 30.731-126.8 6.93-177.002 18.591-19.557 18.293-50.599-.898-69.802-19.198-19.187-50.24-19.484-69.8-.891-37.085-17.552-82.932-20.941-130.114-9.461-50.3 12.237-100.053 41.032-140.095 81.079-40.059 40.054-68.854 89.703-81.079 139.801-11.516 47.188-8.06 93.106 9.654 130.247-18.008 19.341-18.078 50.042 1.276 69.381 19.32 19.336 50.305 19.463 69.786.905 42.012 19.924 90.715 20.062 135.635 7.977 29.757 18.187 63.865 27.782 98.949 27.782C426.76 487.93 512 402.69 512 297.914c0-5.521-4.479-10-10.001-10zM237.436 396.607l74.546-74.546v105.485c-27.605-2.096-53.505-12.845-74.546-30.939zm-14.144-14.145c-18.095-21.042-28.843-46.942-30.939-74.546h105.485l-74.546 74.546zm108.692-60.402l74.546 74.546c-21.042 18.095-46.942 28.843-74.546 30.939V322.06zm88.691 60.402l-74.546-74.646h105.485c-2.096 27.605-12.844 53.606-30.939 74.646zM89.821 430.986a10.005 10.005 0 0 0-12.784 2.85c-10.768 14.548-32.218 16.356-45.279 3.288-11.688-11.682-11.786-30.638.03-42.446 1.198-1.208 2.271-2.517 2.693-2.828a10 10 0 0 0 2.849-12.784c-38.276-70.961-11.119-177.398 64.576-253.085 75.804-75.816 182.481-102.97 253.653-64.576a10.001 10.001 0 0 0 12.763-2.819 30.605 30.605 0 0 1 2.877-3.33c11.695-11.694 30.731-11.693 42.43-.002 11.696 11.703 11.697 30.739.005 42.432a30.72 30.72 0 0 1-3.333 2.879 10 10 0 0 0-2.819 12.763c25.751 47.726 22.738 112.611-7.849 174.587H141.968c-5.522 0-10.001 4.478-10.001 10.001 0 57.428 25.552 110.816 69.281 146.727-41.205 7.867-80.17 3.204-111.427-13.657zm232.163 36.944c-32.757 0-64.56-9.339-91.97-27.007l-.002-.001c-46.049-29.672-74.611-78.851-77.753-133.005h20.049c2.379 36.253 17.659 70.042 43.646 96.029 28.363 28.362 66.02 43.983 106.03 43.983 80.362 0 144.611-62.96 149.676-140.112h20.048c-5.196 89.107-79.337 160.113-169.724 160.113z"/><path d="M93.073 182.386c-4.619-3.033-10.818-1.746-13.849 2.869-33.886 51.601-46.8 108.103-35.434 155.017 1.108 4.576 5.201 7.648 9.712 7.648 6.491 0 11.25-6.076 9.728-12.357-9.92-40.943 2.31-93.029 32.714-139.328 3.031-4.617 1.746-10.817-2.871-13.849z"/></svg>